<?xml version="1.0" standalone="no"?>
<!DOCTYPE svg PUBLIC "-//W3C//DTD SVG 20010904//EN" "http://www.w3.org/TR/2001/REC-SVG-20010904/DTD/svg10.dtd">
<svg xmlns="http://www.w3.org/2000/svg" version="1.0" width="500.000000pt" height="500.000000pt" viewBox="0 0 500.000000 500.000000" preserveAspectRatio="xMidYMid meet">
<metadata>
Created by potrace 1.16, written by Peter Selinger 2001-2019
<meta name="Producer" content="Online-Convert"/></metadata>
<g transform="translate(0.000000,500.000000) scale(0.100000,-0.100000)" fill="#000000" stroke="none">
<path d="M0 2500 l0 -2500 2500 0 2500 0 0 2500 0 2500 -2500 0 -2500 0 0 -2500z m4554 761 c108 -109 117 -121 106 -141 -6 -12 -106 -130 -221 -262 l-209 -241 23 -31 c119 -157 367 -518 367 -533 0 -30 -243 -238 -278 -238 -24 0 -38 17 -119 140 -116 177 -182 272 -252 359 l-56 69 -3 -275 c-2 -233 -5 -278 -18 -288 -16 -14 -293 -27 -337 -16 -14 3 -28 15 -32 25 -15 48 48 1395 70 1497 7 30 29 34 193 34 129 0 144 -2 162 -20 17 -17 19 -29 14 -73 -3 -28 -11 -124 -18 -211 l-12 -160 236 242 c130 133 243 242 251 242 8 0 68 -54 133 -119z m-3554 89 c112 -21 211 -84 277 -177 44 -62 60 -100 83 -198 56 -240 21 -514 -93 -740 -106 -211 -274 -360 -462 -411 -80 -22 -467 -33 -490 -14 -21 17 -20 52 20 774 19 346 35 636 35 645 0 33 20 43 133 72 226 57 377 72 497 49z m1754 -26 c68 -26 158 -110 187 -176 17 -40 24 -77 27 -151 5 -117 -5 -222 -23 -241 -18 -17 -317 -31 -346 -16 -18 10 -19 18 -13 115 6 88 4 108 -10 130 -41 63 -145 -4 -205 -134 -55 -120 -74 -231 -75 -436 -1 -161 1 -184 19 -220 42 -84 152 -80 216 8 16 22 29 43 29 47 0 4 -25 3 -55 -3 -66 -11 -85 0 -85 48 0 59 41 300 53 312 13 13 210 43 280 43 108 0 184 -55 207 -151 25 -102 -8 -276 -78 -418 -104 -213 -355 -321 -616 -266 -157 33 -245 115 -303 282 -23 69 -27 97 -31 245 -6 247 20 423 89 590 82 200 251 358 431 404 73 19 238 12 302 -12z m-1013 -1138 c98 -41 145 -163 100 -261 -70 -155 -278 -164 -360 -16 -29 52 -32 140 -7 188 22 44 77 88 87 71 7 -10 9 -9 9 4 0 9 6 19 13 21 26 11 126 6 158 -7z m1597 -1 c66 -28 103 -75 116 -147 15 -83 -39 -183 -118 -219 -165 -75 -342 102 -267 266 23 51 80 102 92 83 7 -10 9 -9 9 4 0 9 6 19 13 21 27 11 120 6 155 -8z"/>
<path d="M771 2976 c-32 -6 -56 -17 -58 -26 -3 -8 -9 -25 -15 -36 -7 -15 -7 -28 0 -40 7 -13 5 -99 -5 -269 -14 -221 -18 -252 -34 -267 -23 -20 -24 -32 -4 -48 9 -8 15 -30 15 -57 0 -32 4 -44 13 -41 6 3 37 13 67 23 115 38 205 177 247 379 14 71 20 82 35 78 23 -6 24 16 1 26 -14 5 -19 21 -21 66 -4 83 -30 165 -63 198 -23 23 -35 28 -76 27 -26 -1 -72 -6 -102 -13z"/>
</g>
</svg>
