<svg width="46" height="13" viewBox="0 0 46 13" fill="none" xmlns="http://www.w3.org/2000/svg">
<path d="M3.9 0.576C4.788 0.576 5.564 0.752 6.228 1.104C6.892 1.456 7.404 1.952 7.764 2.592C8.132 3.224 8.316 3.956 8.316 4.788C8.316 5.612 8.132 6.344 7.764 6.984C7.404 7.624 6.888 8.12 6.216 8.472C5.552 8.824 4.78 9 3.9 9H0.744V0.576H3.9ZM3.768 7.224C4.544 7.224 5.148 7.012 5.58 6.588C6.012 6.164 6.228 5.564 6.228 4.788C6.228 4.012 6.012 3.408 5.58 2.976C5.148 2.544 4.544 2.328 3.768 2.328H2.796V7.224H3.768Z" fill="white"/>
<path d="M12.792 9.096C12.136 9.096 11.544 8.956 11.016 8.676C10.496 8.396 10.084 7.996 9.78 7.476C9.484 6.956 9.336 6.348 9.336 5.652C9.336 4.964 9.488 4.36 9.792 3.84C10.096 3.312 10.512 2.908 11.04 2.628C11.568 2.348 12.16 2.208 12.816 2.208C13.472 2.208 14.064 2.348 14.592 2.628C15.12 2.908 15.536 3.312 15.84 3.84C16.144 4.36 16.296 4.964 16.296 5.652C16.296 6.34 16.14 6.948 15.828 7.476C15.524 7.996 15.104 8.396 14.568 8.676C14.04 8.956 13.448 9.096 12.792 9.096ZM12.792 7.32C13.184 7.32 13.516 7.176 13.788 6.888C14.068 6.6 14.208 6.188 14.208 5.652C14.208 5.116 14.072 4.704 13.8 4.416C13.536 4.128 13.208 3.984 12.816 3.984C12.416 3.984 12.084 4.128 11.82 4.416C11.556 4.696 11.424 5.108 11.424 5.652C11.424 6.188 11.552 6.6 11.808 6.888C12.072 7.176 12.4 7.32 12.792 7.32Z" fill="white"/>
<path d="M21.824 2.232C22.608 2.232 23.232 2.488 23.696 3C24.168 3.504 24.404 4.2 24.404 5.088V9H22.364V5.364C22.364 4.916 22.248 4.568 22.016 4.32C21.784 4.072 21.472 3.948 21.08 3.948C20.688 3.948 20.376 4.072 20.144 4.32C19.912 4.568 19.796 4.916 19.796 5.364V9H17.744V2.304H19.796V3.192C20.004 2.896 20.284 2.664 20.636 2.496C20.988 2.32 21.384 2.232 21.824 2.232Z" fill="white"/>
<path d="M30.824 2.232C31.608 2.232 32.232 2.488 32.696 3C33.168 3.504 33.404 4.2 33.404 5.088V9H31.364V5.364C31.364 4.916 31.248 4.568 31.016 4.32C30.784 4.072 30.472 3.948 30.08 3.948C29.688 3.948 29.376 4.072 29.144 4.32C28.912 4.568 28.796 4.916 28.796 5.364V9H26.744V2.304H28.796V3.192C29.004 2.896 29.284 2.664 29.636 2.496C29.988 2.32 30.384 2.232 30.824 2.232Z" fill="white"/>
<path d="M42.584 2.304L38.384 12.18H36.176L37.712 8.772L34.988 2.304H37.28L38.828 6.492L40.364 2.304H42.584Z" fill="white"/>
<path d="M44.704 9.096C44.344 9.096 44.048 8.992 43.816 8.784C43.592 8.568 43.48 8.304 43.48 7.992C43.48 7.672 43.592 7.404 43.816 7.188C44.048 6.972 44.344 6.864 44.704 6.864C45.056 6.864 45.344 6.972 45.568 7.188C45.8 7.404 45.916 7.672 45.916 7.992C45.916 8.304 45.8 8.568 45.568 8.784C45.344 8.992 45.056 9.096 44.704 9.096Z" fill="white"/>
</svg>
